<svg width="4026" height="1093" xmlns="http://www.w3.org/2000/svg" xmlns:xlink="http://www.w3.org/1999/xlink" xml:space="preserve" overflow="hidden"><defs><clipPath id="clip0"><rect x="187" y="691" width="4026" height="1093"/></clipPath></defs><g clip-path="url(#clip0)" transform="translate(-187 -691)"><path d="M534.259 1162.2 587.094 1162.2 599.194 1321.31C618.15 1290.39 631.829 1266.86 640.232 1250.73 648.634 1234.6 654.852 1220.65 658.885 1208.89 662.919 1197.12 666.011 1184.86 668.162 1172.08L670.38 1162.2 699.419 1162.2 714.14 1321.51C735.113 1291.67 751.078 1265.62 762.034 1243.37 772.991 1221.12 778.47 1203.01 778.47 1189.02 778.47 1182.71 777.125 1178.4 774.437 1176.12 771.748 1173.83 767.177 1172.49 760.724 1172.08L762.74 1162.2 814.769 1162.2 820.213 1172.29C815.508 1184.25 811.744 1193.46 808.92 1199.91 806.097 1206.37 802.4 1214.13 797.829 1223.21 793.258 1232.28 788.418 1241.32 783.31 1250.33 778.201 1259.34 772.185 1269.25 765.261 1280.07 758.337 1290.9 750.573 1302.66 741.969 1315.36 733.365 1328.07 723.215 1342.35 711.519 1358.22L687.521 1358.22 679.253 1273.92C678.581 1267.34 677.875 1258.73 677.136 1248.11 676.396 1237.49 675.892 1229.29 675.623 1223.51L673.405 1223.31C666.145 1241.19 656.264 1261.08 643.761 1283 631.258 1304.91 615.797 1329.98 597.379 1358.22L570.357 1358.22 555.03 1206.37C554.224 1198.57 553.215 1192.25 552.005 1187.41 550.795 1182.57 548.779 1178.94 545.956 1176.52 543.132 1174.1 538.494 1172.62 532.041 1172.08Z" fill-rule="evenodd"/><text fill="#000000" fill-opacity="0" font-family="Arial,Arial_MSFontService,sans-serif" font-size="196.014" x="532.041" y="1333.72">𝑤</text><path d="M881.834 1290.6 891.975 1290.6 861.405 1434.63C858.955 1445.8 855.795 1455.38 851.925 1463.36 848.055 1471.35 843.327 1477.89 837.742 1482.98 832.157 1488.08 825.642 1491.83 818.195 1494.23 810.748 1496.63 802.224 1497.83 792.622 1497.83 790.074 1497.83 787.625 1497.71 785.273 1497.46 782.922 1497.22 780.815 1496.85 778.953 1496.36L782.628 1480.93C783.803 1481.42 785.371 1481.73 787.331 1481.88 789.29 1482.03 791.544 1482.1 794.091 1482.1 798.893 1482.1 803.179 1481.47 806.952 1480.19 810.724 1478.92 814.104 1476.62 817.093 1473.28 820.081 1469.95 822.776 1465.37 825.176 1459.54 827.577 1453.71 829.806 1446.24 831.863 1437.13 835.293 1421.26 838.575 1406.36 841.711 1392.45 844.846 1378.54 847.418 1366.88 849.427 1357.47 851.435 1348.06 853.027 1340.57 854.203 1334.98 855.379 1329.4 856.236 1325.09 856.775 1322.05 857.314 1319.01 857.633 1316.86 857.731 1315.58 857.829 1314.31 857.878 1313.28 857.878 1312.5 857.878 1309.07 856.579 1306.54 853.983 1304.93 851.386 1303.31 846.806 1302.4 840.241 1302.21L842.445 1292.21ZM876.396 1231.37 905.938 1231.37 898.736 1262.97 869.194 1262.97Z" fill-rule="evenodd"/><text fill="#000000" fill-opacity="0" font-family="Arial,Arial_MSFontService,sans-serif" font-size="266.461" x="778.953" y="1464.52">𝑗</text><path d="M1161.22 1153.73 1173.12 1164.82 1126.94 1223.51 1381.64 1223.51 1381.64 1250.33 1126.94 1250.33 1173.12 1309.21 1161.22 1320.3 1081.97 1243.47 1081.97 1230.57Z" fill-rule="evenodd"/><text fill="#000000" fill-opacity="0" font-family="Arial,Arial_MSFontService,sans-serif" font-size="166.571" x="1081.97" y="1299.48">←</text><path d="M1532.14 1162.2 1584.98 1162.2 1597.08 1321.31C1616.03 1290.39 1629.71 1266.86 1638.11 1250.73 1646.52 1234.6 1652.74 1220.65 1656.77 1208.89 1660.8 1197.12 1663.89 1184.86 1666.04 1172.08L1668.26 1162.2 1697.3 1162.2 1712.02 1321.51C1733 1291.67 1748.96 1265.62 1759.92 1243.37 1770.87 1221.12 1776.35 1203.01 1776.35 1189.02 1776.35 1182.71 1775.01 1178.4 1772.32 1176.12 1769.63 1173.83 1765.06 1172.49 1758.61 1172.08L1760.62 1162.2 1812.65 1162.2 1818.1 1172.29C1813.39 1184.25 1809.63 1193.46 1806.8 1199.91 1803.98 1206.37 1800.28 1214.13 1795.71 1223.21 1791.14 1232.28 1786.3 1241.32 1781.19 1250.33 1776.08 1259.34 1770.07 1269.25 1763.14 1280.07 1756.22 1290.9 1748.46 1302.66 1739.85 1315.36 1731.25 1328.07 1721.1 1342.35 1709.4 1358.22L1685.4 1358.22 1677.14 1273.92C1676.46 1267.34 1675.76 1258.73 1675.02 1248.11 1674.28 1237.49 1673.78 1229.29 1673.51 1223.51L1671.29 1223.31C1664.03 1241.19 1654.15 1261.08 1641.64 1283 1629.14 1304.91 1613.68 1329.98 1595.26 1358.22L1568.24 1358.22 1552.91 1206.37C1552.11 1198.57 1551.1 1192.25 1549.89 1187.41 1548.68 1182.57 1546.66 1178.94 1543.84 1176.52 1541.02 1174.1 1536.38 1172.62 1529.92 1172.08Z" fill-rule="evenodd"/><text fill="#000000" fill-opacity="0" font-family="Arial,Arial_MSFontService,sans-serif" font-size="196.014" x="1529.92" y="1333.72">𝑤</text><path d="M1879.72 1290.6 1889.86 1290.6 1859.29 1434.63C1856.84 1445.8 1853.68 1455.38 1849.81 1463.36 1845.94 1471.35 1841.21 1477.89 1835.63 1482.98 1830.04 1488.08 1823.52 1491.83 1816.08 1494.23 1808.63 1496.63 1800.11 1497.83 1790.51 1497.83 1787.96 1497.83 1785.51 1497.71 1783.16 1497.46 1780.8 1497.22 1778.7 1496.85 1776.84 1496.36L1780.51 1480.93C1781.69 1481.42 1783.25 1481.73 1785.21 1481.88 1787.17 1482.03 1789.43 1482.1 1791.97 1482.1 1796.78 1482.1 1801.06 1481.47 1804.83 1480.19 1808.61 1478.92 1811.99 1476.62 1814.98 1473.28 1817.96 1469.95 1820.66 1465.37 1823.06 1459.54 1825.46 1453.71 1827.69 1446.24 1829.75 1437.13 1833.18 1421.26 1836.46 1406.36 1839.59 1392.45 1842.73 1378.54 1845.3 1366.88 1847.31 1357.47 1849.32 1348.06 1850.91 1340.57 1852.09 1334.98 1853.26 1329.4 1854.12 1325.09 1854.66 1322.05 1855.2 1319.01 1855.52 1316.86 1855.61 1315.58 1855.71 1314.31 1855.76 1313.28 1855.76 1312.5 1855.76 1309.07 1854.46 1306.54 1851.87 1304.93 1849.27 1303.31 1844.69 1302.4 1838.12 1302.21L1840.33 1292.21ZM1874.28 1231.37 1903.82 1231.37 1896.62 1262.97 1867.08 1262.97Z" fill-rule="evenodd"/><text fill="#000000" fill-opacity="0" font-family="Arial,Arial_MSFontService,sans-serif" font-size="266.461" x="1776.84" y="1464.52">𝑗</text><path d="M2063.8 1223.51 2312.24 1223.51 2312.24 1250.33 2063.8 1250.33Z" fill-rule="evenodd"/><text fill="#000000" fill-opacity="0" font-family="Arial,Arial_MSFontService,sans-serif" font-size="26.8208" x="2063.8" y="1246.98">−</text><path d="M2560.08 1174.91C2547.72 1174.91 2536.22 1180.42 2525.6 1191.44 2514.98 1202.47 2506.48 1217.39 2500.09 1236.21 2493.7 1255.03 2490.51 1274.33 2490.51 1294.09 2490.51 1307.67 2492.53 1317.75 2496.56 1324.34 2500.59 1330.93 2506.64 1334.22 2514.71 1334.22 2526.27 1334.22 2538.17 1327.43 2550.4 1313.85 2562.64 1300.27 2574 1281.38 2584.49 1257.19 2586.77 1243.2 2587.91 1230.84 2587.91 1220.08 2587.91 1204.75 2585.66 1193.39 2581.16 1186 2576.65 1178.61 2569.63 1174.91 2560.08 1174.91ZM2561.5 1158.98C2576.55 1158.98 2588.35 1163.68 2596.89 1173.09 2605.42 1182.5 2610.16 1196.28 2611.1 1214.43L2612.92 1214.23 2639.34 1162.2 2674.22 1162.2 2672.21 1172.49C2655.54 1195.07 2635.91 1222.84 2613.32 1255.77 2609.96 1281.45 2608.28 1299.6 2608.28 1310.22 2608.28 1319.09 2609.29 1325.45 2611.31 1329.28 2613.32 1333.11 2616.68 1335.03 2621.39 1335.03 2625.15 1335.03 2629.42 1333.45 2634.19 1330.29 2638.97 1327.13 2644.11 1322.25 2649.62 1315.67L2661.32 1326.56C2650.02 1338.66 2640.21 1346.96 2631.88 1351.46 2623.54 1355.97 2614.94 1358.22 2606.06 1358.22 2588.18 1358.22 2579.24 1345.18 2579.24 1319.09 2579.24 1313.31 2579.65 1306.93 2580.45 1299.94L2578.44 1299.94C2564.59 1320.64 2551.48 1335.53 2539.11 1344.6 2526.74 1353.68 2513.5 1358.22 2499.38 1358.22 2489.57 1358.22 2481.3 1355.39 2474.58 1349.75 2467.86 1344.1 2462.88 1336.61 2459.66 1327.26 2456.43 1317.92 2454.82 1307.73 2454.82 1296.71 2454.82 1272.65 2459.39 1249.82 2468.53 1228.25 2477.67 1206.67 2490.38 1189.73 2506.64 1177.43 2522.91 1165.13 2541.2 1158.98 2561.5 1158.98Z" fill-rule="evenodd"/><text fill="#000000" fill-opacity="0" font-family="Arial,Arial_MSFontService,sans-serif" font-size="199.24" x="2454.82" y="1333.31">𝛼</text><path d="M2891.24 865.941C2878.74 865.941 2867.15 870.881 2856.46 880.763 2845.77 890.644 2837.06 905.466 2830.34 925.229 2823.62 944.992 2820.26 964.553 2820.26 983.912 2820.26 996.012 2821.57 1005.46 2824.19 1012.25 2826.81 1019.03 2830.28 1023.71 2834.58 1026.26 2838.88 1028.81 2844.26 1030.09 2850.71 1030.09 2865.23 1030.09 2877.63 1024.28 2887.92 1012.65 2898.2 1001.02 2906.97 983.542 2914.23 960.217 2921.49 936.892 2925.12 918.507 2925.12 905.063 2925.12 891.35 2922.33 881.401 2916.75 875.217 2911.17 869.033 2902.67 865.941 2891.24 865.941ZM3055.71 767.531 3136.38 767.531 3134.16 777.412C3129.05 778.488 3125.39 779.698 3123.17 781.042 3120.95 782.386 3118.97 784.403 3117.22 787.092 3115.47 789.781 3113.66 793.982 3111.77 799.695 3109.89 805.409 3107.54 814.719 3104.72 827.625L3061.56 1024.24 3111.17 1024.24C3120.18 1024.24 3127.27 1023.37 3132.44 1021.62 3137.62 1019.87 3142.53 1016.68 3147.17 1012.04 3151.8 1007.41 3156.34 1001.12 3160.78 993.188 3165.21 985.256 3169.72 975.375 3174.29 963.544L3193.85 963.544 3173.48 1042.8 3002.88 1042.8 3005.1 1032.92C3010.2 1032.11 3014.04 1030.8 3016.59 1028.98 3019.15 1027.17 3021.3 1024.65 3023.04 1021.42 3024.79 1018.19 3026.4 1014.26 3027.88 1009.62 3029.36 1004.99 3031.58 996.012 3034.54 982.702L3068.82 827.424C3071.78 813.98 3073.26 803.157 3073.26 794.956 3073.26 788.638 3071.68 784.235 3068.52 781.748 3065.36 779.261 3060.35 777.815 3053.49 777.412ZM2901.73 753.011C2924.18 753.011 2940.99 760.641 2952.15 775.9 2963.3 791.159 2968.88 814.249 2968.88 845.17 2968.88 857.404 2967.81 871.957 2965.66 888.829 2963.51 905.701 2959.88 923.279 2954.77 941.563 2949.66 959.847 2943.74 975.375 2937.02 988.147 2930.3 1000.92 2922.84 1011.47 2914.64 1019.81 2906.44 1028.14 2896.99 1034.6 2886.3 1039.17 2875.62 1043.74 2863.55 1046.02 2850.11 1046.02 2829.94 1046.02 2813.97 1039.97 2802.21 1027.87 2790.45 1015.77 2784.57 998.028 2784.57 974.636 2784.57 953.529 2789 933.228 2797.88 913.734 2806.75 894.24 2818.92 878.746 2834.38 867.252 2849.84 855.757 2866.78 850.01 2885.19 850.01 2894.87 850.01 2903.34 851.119 2910.6 853.337 2917.86 855.555 2925.93 859.891 2934.8 866.344L2935.21 861.303C2935.61 854.849 2935.81 849.27 2935.81 844.565 2935.81 819.156 2932.45 800.704 2925.73 789.209 2919.01 777.714 2908.52 771.967 2894.27 771.967 2884.45 771.967 2875.35 774.286 2866.94 778.924 2858.54 783.563 2850.31 790.722 2842.24 800.401L2827.72 800.401 2827.72 783.663C2840.49 774.656 2850.41 768.236 2857.47 764.405 2864.52 760.573 2871.58 757.717 2878.64 755.834 2885.7 753.952 2893.4 753.011 2901.73 753.011Z" fill-rule="evenodd"/><text fill="#000000" fill-opacity="0" font-family="Arial,Arial_MSFontService,sans-serif" font-size="293.012" x="2784.57" y="1009.4">𝜕𝐿</text><path d="M3377.74 751.398 3383.18 766.926C3351.72 777.278 3328.43 797.477 3313.31 827.525 3298.18 857.572 3290.62 895.316 3290.62 940.757 3290.62 987.811 3298.18 1026.6 3313.31 1057.11 3328.43 1087.63 3351.52 1108.07 3382.58 1118.42L3377.74 1133.95C3338.35 1123.6 3308.16 1101.31 3287.19 1067.1 3266.22 1032.88 3255.73 991.441 3255.73 942.773 3255.73 894.24 3266.25 852.799 3287.29 818.45 3308.33 784.1 3338.48 761.75 3377.74 751.398Z" fill-rule="evenodd"/><text fill="#000000" fill-opacity="0" font-family="Arial,Arial_MSFontService,sans-serif" font-size="382.549" x="3255.73" y="1086.13">(</text><path d="M3404.04 850.01 3456.88 850.01 3468.98 1009.12C3487.94 978.198 3501.61 954.671 3510.02 938.538 3518.42 922.406 3524.64 908.458 3528.67 896.694 3532.7 884.93 3535.8 872.663 3537.95 859.891L3540.17 850.01 3569.2 850.01 3583.93 1009.32C3604.9 979.475 3620.86 953.428 3631.82 931.178 3642.78 908.928 3648.26 890.812 3648.26 876.83 3648.26 870.512 3646.91 866.21 3644.22 863.924 3641.53 861.639 3636.96 860.294 3630.51 859.891L3632.53 850.01 3684.55 850.01 3690 860.093C3685.29 872.058 3681.53 881.267 3678.71 887.72 3675.88 894.173 3672.19 901.937 3667.61 911.012 3663.04 920.087 3658.2 929.128 3653.09 938.135 3647.99 947.143 3641.97 957.058 3635.05 967.88 3628.12 978.702 3620.36 990.466 3611.75 1003.17 3603.15 1015.88 3593 1030.16 3581.3 1046.02L3557.31 1046.02 3549.04 961.729C3548.37 955.142 3547.66 946.538 3546.92 935.917 3546.18 925.296 3545.68 917.095 3545.41 911.314L3543.19 911.113C3535.93 928.993 3526.05 948.89 3513.55 970.804 3501.04 992.718 3485.58 1017.79 3467.16 1046.02L3440.14 1046.02 3424.82 894.173C3424.01 886.376 3423 880.057 3421.79 875.217 3420.58 870.377 3418.56 866.747 3415.74 864.328 3412.92 861.908 3408.28 860.429 3401.83 859.891Z" fill-rule="evenodd"/><text fill="#000000" fill-opacity="0" font-family="Arial,Arial_MSFontService,sans-serif" font-size="196.014" x="3401.83" y="1021.52">𝑤</text><path d="M3720.71 751.398C3759.97 761.75 3790.12 784.1 3811.16 818.45 3832.2 852.799 3842.72 894.24 3842.72 942.773 3842.72 991.441 3832.23 1032.88 3811.26 1067.1 3790.28 1101.31 3760.1 1123.6 3720.71 1133.95L3715.87 1118.42C3746.93 1108.07 3770.02 1087.63 3785.14 1057.11 3800.27 1026.6 3807.83 987.811 3807.83 940.757 3807.83 895.316 3800.3 857.572 3785.24 827.525 3770.19 797.477 3746.86 777.278 3715.27 766.926Z" fill-rule="evenodd"/><text fill="#000000" fill-opacity="0" font-family="Arial,Arial_MSFontService,sans-serif" font-size="382.549" x="3715.27" y="1086.13">)</text><path d="M3118.05 1454.07C3105.55 1454.07 3093.95 1459.01 3083.26 1468.9 3072.58 1478.78 3063.87 1493.6 3057.15 1513.36 3050.43 1533.12 3047.07 1552.69 3047.07 1572.05 3047.07 1584.14 3048.38 1593.59 3051 1600.38 3053.62 1607.17 3057.08 1611.84 3061.38 1614.39 3065.69 1616.95 3071.06 1618.23 3077.52 1618.23 3092.04 1618.23 3104.44 1612.41 3114.72 1600.78 3125.01 1589.15 3133.78 1571.68 3141.04 1548.35 3148.3 1525.02 3151.93 1506.64 3151.93 1493.2 3151.93 1479.48 3149.14 1469.53 3143.56 1463.35 3137.98 1457.17 3129.48 1454.07 3118.05 1454.07ZM3128.54 1341.14C3150.99 1341.14 3167.79 1348.77 3178.95 1364.03 3190.11 1379.29 3195.69 1402.38 3195.69 1433.3 3195.69 1445.54 3194.61 1460.09 3192.46 1476.96 3190.31 1493.83 3186.68 1511.41 3181.57 1529.7 3176.46 1547.98 3170.55 1563.51 3163.83 1576.28 3157.1 1589.05 3149.64 1599.61 3141.44 1607.94 3133.24 1616.28 3123.8 1622.73 3113.11 1627.3 3102.42 1631.87 3090.36 1634.16 3076.91 1634.16 3056.75 1634.16 3040.78 1628.11 3029.02 1616.01 3017.25 1603.91 3011.37 1586.16 3011.37 1562.77 3011.37 1541.66 3015.81 1521.36 3024.68 1501.87 3033.55 1482.37 3045.72 1466.88 3061.18 1455.38 3076.64 1443.89 3093.58 1438.14 3112 1438.14 3121.68 1438.14 3130.15 1439.25 3137.41 1441.47 3144.67 1443.69 3152.74 1448.02 3161.61 1454.48L3162.01 1449.44C3162.42 1442.98 3162.62 1437.4 3162.62 1432.7 3162.62 1407.29 3159.26 1388.84 3152.53 1377.34 3145.81 1365.85 3135.33 1360.1 3121.07 1360.1 3111.26 1360.1 3102.15 1362.42 3093.75 1367.06 3085.35 1371.7 3077.11 1378.85 3069.05 1388.53L3054.53 1388.53 3054.53 1371.8C3067.3 1362.79 3077.21 1356.37 3084.27 1352.54 3091.33 1348.71 3098.39 1345.85 3105.45 1343.97 3112.5 1342.09 3120.2 1341.14 3128.54 1341.14Z" fill-rule="evenodd"/><text fill="#000000" fill-opacity="0" font-family="Arial,Arial_MSFontService,sans-serif" font-size="293.012" x="3011.37" y="1597.53">𝜕</text><path d="M3242.14 1438.14 3294.97 1438.14 3307.07 1597.25C3326.03 1566.33 3339.71 1542.8 3348.11 1526.67 3356.51 1510.54 3362.73 1496.59 3366.76 1484.83 3370.8 1473.06 3373.89 1460.8 3376.04 1448.02L3378.26 1438.14 3407.3 1438.14 3422.02 1597.45C3442.99 1567.61 3458.96 1541.56 3469.91 1519.31 3480.87 1497.06 3486.35 1478.95 3486.35 1464.96 3486.35 1458.65 3485 1454.34 3482.32 1452.06 3479.63 1449.77 3475.06 1448.43 3468.6 1448.02L3470.62 1438.14 3522.65 1438.14 3528.09 1448.23C3523.39 1460.19 3519.62 1469.4 3516.8 1475.85 3513.98 1482.31 3510.28 1490.07 3505.71 1499.15 3501.14 1508.22 3496.3 1517.26 3491.19 1526.27 3486.08 1535.28 3480.06 1545.19 3473.14 1556.01 3466.22 1566.84 3458.45 1578.6 3449.85 1591.3 3441.24 1604.01 3431.09 1618.29 3419.4 1634.16L3395.4 1634.16 3387.13 1549.86C3386.46 1543.28 3385.75 1534.67 3385.01 1524.05 3384.28 1513.43 3383.77 1505.23 3383.5 1499.45L3381.28 1499.25C3374.02 1517.13 3364.14 1537.02 3351.64 1558.94 3339.14 1580.85 3323.68 1605.92 3305.26 1634.16L3278.24 1634.16 3262.91 1482.31C3262.1 1474.51 3261.09 1468.19 3259.88 1463.35 3258.67 1458.51 3256.66 1454.88 3253.83 1452.46 3251.01 1450.04 3246.37 1448.56 3239.92 1448.02Z" fill-rule="evenodd"/><text fill="#000000" fill-opacity="0" font-family="Arial,Arial_MSFontService,sans-serif" font-size="196.014" x="3239.92" y="1609.65">𝑤</text><path d="M3589.71 1566.54 3599.85 1566.54 3569.28 1710.57C3566.83 1721.74 3563.67 1731.32 3559.8 1739.3 3555.93 1747.29 3551.21 1753.83 3545.62 1758.92 3540.04 1764.02 3533.52 1767.77 3526.07 1770.17 3518.63 1772.57 3510.1 1773.77 3500.5 1773.77 3497.95 1773.77 3495.5 1773.65 3493.15 1773.4 3490.8 1773.16 3488.69 1772.79 3486.83 1772.3L3490.51 1756.87C3491.68 1757.36 3493.25 1757.67 3495.21 1757.82 3497.17 1757.97 3499.42 1758.04 3501.97 1758.04 3506.77 1758.04 3511.06 1757.41 3514.83 1756.13 3518.6 1754.86 3521.98 1752.55 3524.97 1749.22 3527.96 1745.89 3530.65 1741.31 3533.06 1735.48 3535.46 1729.65 3537.68 1722.18 3539.74 1713.07 3543.17 1697.2 3546.45 1682.3 3549.59 1668.39 3552.73 1654.48 3555.3 1642.82 3557.31 1633.41 3559.31 1624 3560.91 1616.51 3562.08 1610.92 3563.26 1605.34 3564.12 1601.03 3564.65 1597.99 3565.19 1594.95 3565.51 1592.8 3565.61 1591.52 3565.71 1590.25 3565.76 1589.22 3565.76 1588.44 3565.76 1585.01 3564.46 1582.48 3561.86 1580.87 3559.27 1579.25 3554.68 1578.34 3548.12 1578.15L3550.32 1568.15ZM3584.28 1507.31 3613.82 1507.31 3606.61 1538.91 3577.07 1538.91Z" fill-rule="evenodd"/><text fill="#000000" fill-opacity="0" font-family="Arial,Arial_MSFontService,sans-serif" font-size="266.461" x="3486.83" y="1740.46">𝑗</text><path d="M2762.71 1223.98 3321.21 1223.98 3879.71 1223.98 3879.71 1250.98 3321.21 1250.98 2762.71 1250.98Z" fill-rule="evenodd"/></g></svg>