<svg width="4026" height="450" xmlns="http://www.w3.org/2000/svg" xmlns:xlink="http://www.w3.org/1999/xlink" xml:space="preserve" overflow="hidden"><defs><clipPath id="clip0"><rect x="187" y="691" width="4026" height="450"/></clipPath></defs><g clip-path="url(#clip0)" transform="translate(-187 -691)"><path d="M217.027 788.701 286.566 788.701 284.719 796.931C279.792 797.491 275.956 798.947 273.213 801.298 270.469 803.65 268.538 806.925 267.418 811.124 266.298 815.324 265.738 820.951 265.738 828.005 265.738 829.685 265.906 834.724 266.242 843.122L270.945 966.076 270.945 979.513 272.625 979.513 345.355 848.33C349.611 840.603 352.802 833.968 354.93 828.425 357.057 822.882 358.121 817.983 358.121 813.728 358.121 804.322 352.522 798.723 341.324 796.931L343.172 788.701 411.871 788.701 410.023 796.931C407 797.379 404.117 798.527 401.373 800.374 398.63 802.222 395.55 805.302 392.135 809.613 388.719 813.924 383.428 822.238 376.262 834.556L268.762 1020.67 246.422 1020.67 235.168 833.38C234.72 826.102 233.908 819.859 232.732 814.652 231.557 809.445 229.709 805.386 227.189 802.474 224.67 799.563 220.667 797.715 215.18 796.931Z" fill-rule="evenodd"/><text fill="#000000" fill-opacity="0" font-family="Arial,Arial_MSFontService,sans-serif" font-size="231.965" x="215.18" y="991.67">𝑉</text><path d="M1050.68 975.15C1046.18 975.15 1041.75 976.253 1037.38 978.459 1033.01 980.665 1028.88 983.79 1025 987.835 1021.12 991.879 1017.59 996.781 1014.4 1002.54 1011.21 1008.3 1008.56 1014.74 1006.43 1021.84 1016.81 1021.76 1025.74 1020.95 1033.21 1019.39 1040.69 1017.84 1046.82 1015.72 1051.6 1013.02 1056.38 1010.32 1059.89 1007.14 1062.14 1003.46 1064.38 999.784 1065.51 995.74 1065.51 991.328 1065.51 986.262 1064.24 982.299 1061.71 979.439 1059.18 976.58 1055.5 975.15 1050.68 975.15ZM455.678 975.15C451.184 975.15 446.752 976.253 442.381 978.459 438.009 980.665 433.883 983.79 430.002 987.835 426.121 991.879 422.587 996.781 419.401 1002.54 416.214 1008.3 413.559 1014.74 411.435 1021.84 421.811 1021.76 430.737 1020.95 438.214 1019.39 445.69 1017.84 451.818 1015.72 456.597 1013.02 461.377 1010.32 464.891 1007.14 467.137 1003.46 469.384 999.784 470.508 995.74 470.508 991.328 470.508 986.262 469.241 982.299 466.708 979.439 464.176 976.58 460.499 975.15 455.678 975.15ZM807.245 964.242 813.25 964.242 795.111 1045.87C793.967 1050.69 793.171 1054.53 792.721 1057.39 792.272 1060.25 792.047 1062.82 792.047 1065.11 792.047 1068.21 792.68 1070.46 793.947 1071.85 795.213 1073.24 797.113 1073.93 799.646 1073.93 801.117 1073.93 802.587 1073.65 804.058 1073.07 805.529 1072.5 807.102 1071.6 808.776 1070.38 810.451 1069.15 812.29 1067.58 814.292 1065.66 816.293 1063.74 818.52 1061.43 820.971 1058.73L829.305 1066.82C825.056 1071.15 821.196 1074.81 817.723 1077.79 814.251 1080.77 810.962 1083.21 807.857 1085.08 804.753 1086.96 801.709 1088.31 798.727 1089.13 795.745 1089.95 792.578 1090.35 789.228 1090.35 786.124 1090.35 783.325 1089.78 780.833 1088.64 778.341 1087.5 776.196 1085.92 774.399 1083.92 772.601 1081.92 771.212 1079.53 770.232 1076.75 769.251 1073.97 768.761 1070.91 768.761 1067.56 768.761 1064.86 769.088 1061.51 769.742 1057.51 770.395 1053.51 771.233 1049.15 772.254 1044.46 773.275 1039.76 774.399 1034.84 775.624 1029.69 776.85 1024.54 778.055 1019.43 779.24 1014.37 780.425 1009.3 781.487 1004.42 782.426 999.723 783.366 995.025 784.04 990.756 784.449 986.915 784.612 986.262 784.694 985.629 784.694 985.016 784.694 984.403 784.694 983.851 784.694 983.361 784.53 980.175 783.407 977.846 781.323 976.375 779.24 974.905 775.543 974.088 770.232 973.924L771.703 965.59ZM1172.22 963.016C1180.14 963.016 1187.43 963.507 1194.09 964.487 1200.75 965.468 1207.23 966.898 1213.52 968.777L1207.64 996.475 1196.73 996.475C1195.83 989.121 1193.4 983.688 1189.44 980.175 1185.47 976.661 1179.32 974.905 1170.99 974.905 1167.64 974.905 1164.54 975.354 1161.68 976.253 1158.82 977.152 1156.37 978.398 1154.32 979.991 1152.28 981.584 1150.69 983.484 1149.54 985.69 1148.4 987.896 1147.83 990.306 1147.83 992.921 1147.83 995.29 1148.11 997.455 1148.68 999.416 1149.26 1001.38 1150.38 1003.3 1152.06 1005.18 1153.73 1007.06 1156.1 1009.02 1159.16 1011.06 1162.23 1013.1 1166.25 1015.43 1171.24 1018.05 1176.46 1020.9 1180.82 1023.64 1184.29 1026.26 1187.76 1028.87 1190.52 1031.53 1192.56 1034.22 1194.6 1036.92 1196.03 1039.8 1196.85 1042.86 1197.67 1045.93 1198.08 1049.34 1198.08 1053.1 1198.08 1058.9 1196.89 1064.11 1194.52 1068.72 1192.15 1073.34 1188.84 1077.24 1184.59 1080.43 1180.35 1083.61 1175.34 1086.07 1169.58 1087.78 1163.82 1089.5 1157.51 1090.35 1150.65 1090.35 1143.13 1090.35 1135.73 1089.86 1128.46 1088.88 1121.19 1087.9 1113.51 1086.23 1105.42 1083.86L1111.79 1055.92 1122.46 1055.92C1122.87 1063.51 1125.26 1069.21 1129.63 1073.01 1134 1076.81 1140.76 1078.71 1149.91 1078.71 1158.08 1078.71 1164.52 1076.96 1169.21 1073.44 1173.91 1069.93 1176.26 1065.03 1176.26 1058.73 1176.26 1055.88 1175.97 1053.4 1175.4 1051.32 1174.83 1049.24 1173.71 1047.26 1172.03 1045.38 1170.36 1043.5 1168.07 1041.56 1165.17 1039.55 1162.27 1037.55 1158.49 1035.24 1153.83 1032.63 1149.01 1029.93 1144.87 1027.28 1141.39 1024.66 1137.92 1022.05 1135.06 1019.39 1132.81 1016.7 1130.57 1014 1128.91 1011.18 1127.85 1008.24 1126.79 1005.3 1126.26 1002.15 1126.26 998.804 1126.26 993.656 1127.34 988.897 1129.5 984.526 1131.67 980.154 1134.75 976.375 1138.76 973.189 1142.76 970.002 1147.58 967.51 1153.22 965.713 1158.86 963.915 1165.19 963.016 1172.22 963.016ZM1055.95 963.016C1066.41 963.016 1074.35 965.304 1079.79 969.88 1085.22 974.455 1087.94 980.951 1087.94 989.367 1087.94 1018.94 1059.95 1033.73 1003.98 1033.73 1003.57 1035.86 1003.25 1038.17 1003 1040.66 1002.76 1043.15 1002.64 1045.87 1002.64 1048.81 1002.64 1057.71 1004.45 1064.21 1008.09 1068.29 1011.72 1072.38 1017.38 1074.42 1025.06 1074.42 1029.07 1074.42 1032.87 1073.99 1036.46 1073.14 1040.06 1072.28 1043.59 1070.95 1047.06 1069.15 1050.54 1067.35 1054.03 1065.05 1057.54 1062.23 1061.05 1059.41 1064.73 1056.04 1068.57 1052.12L1077.76 1062.04C1068.29 1071.44 1058.83 1078.51 1049.39 1083.25 1039.95 1087.99 1029.8 1090.35 1018.94 1090.35 1012.56 1090.35 1006.9 1089.39 1001.96 1087.47 997.018 1085.55 992.851 1082.76 989.46 1079.08 986.069 1075.4 983.496 1070.93 981.739 1065.66 979.982 1060.39 979.104 1054.45 979.104 1047.83 979.104 1043.17 979.512 1038.33 980.329 1033.3 981.147 1028.28 982.413 1023.25 984.129 1018.23 985.845 1013.2 987.969 1008.3 990.502 1003.52 993.035 998.742 996.017 994.269 999.449 990.102 1006.31 981.605 1014.58 974.966 1024.27 970.186 1033.95 965.406 1044.51 963.016 1055.95 963.016ZM927.11 963.016C933.074 963.016 938.61 963.343 943.716 963.997 948.823 964.651 954.113 965.672 959.588 967.061L952.724 997.088 938.263 997.088C938.181 992.839 937.874 989.305 937.343 986.486 936.812 983.668 935.954 981.441 934.77 979.807 933.585 978.173 932.033 977.009 930.112 976.314 928.192 975.62 925.843 975.232 923.065 975.15 918.653 975.15 914.425 976.13 910.38 978.091 906.336 980.052 902.578 982.769 899.105 986.241 895.633 989.714 892.466 993.779 889.607 998.436 886.747 1003.09 884.296 1008.12 882.253 1013.51 880.211 1018.9 878.638 1024.52 877.535 1030.36 876.432 1036.2 875.88 1042.03 875.88 1047.83 875.88 1056.49 877.596 1063.09 881.028 1067.62 884.459 1072.15 889.607 1074.42 896.47 1074.42 900.31 1074.42 903.864 1074.07 907.133 1073.38 910.401 1072.69 913.587 1071.52 916.692 1069.89 919.797 1068.25 923.004 1066.11 926.313 1063.45 929.622 1060.8 933.279 1057.51 937.282 1053.59 938.835 1055.22 940.326 1056.84 941.755 1058.43 943.185 1060.02 944.676 1061.64 946.229 1063.27 937.405 1072.42 928.58 1079.22 919.756 1083.68 910.932 1088.13 901.454 1090.35 891.323 1090.35 878.658 1090.35 868.956 1086.66 862.215 1079.26 855.474 1071.87 852.104 1061.31 852.104 1047.58 852.104 1039.9 852.962 1032.49 854.678 1025.34 856.393 1018.19 858.865 1011.47 862.092 1005.18 865.32 998.885 869.18 993.166 873.674 988.018 878.168 982.871 883.193 978.438 888.749 974.721 894.305 971.003 900.31 968.123 906.765 966.08 913.22 964.038 920.001 963.016 927.11 963.016ZM549.028 963.016C555.074 963.016 559.752 964.998 563.061 968.961 566.37 972.923 568.024 978.132 568.024 984.587 568.024 988.264 567.452 991.532 566.309 994.391L568.024 995.127C576.277 984.097 584.304 975.987 592.107 970.799 599.91 965.611 607.938 963.016 616.19 963.016 619.295 963.016 622.216 963.18 624.953 963.507 627.69 963.834 630.325 964.242 632.858 964.732L626.607 994.391 612.391 994.391C611.982 989.489 610.94 985.976 609.265 983.851 607.59 981.727 605.16 980.665 601.973 980.665 600.094 980.583 597.929 981.155 595.477 982.381 593.026 983.606 590.432 985.363 587.695 987.651 584.958 989.939 582.241 992.635 579.545 995.74 576.849 998.844 574.295 1002.24 571.885 1005.91 569.475 1009.59 567.371 1013.49 565.573 1017.62 563.776 1021.74 562.427 1025.89 561.529 1030.06L549.028 1088.15 525.006 1088.15 543.39 1008.24C544.534 1003.5 545.331 999.58 545.78 996.475 546.229 993.37 546.454 990.756 546.454 988.631 546.454 982.667 544.044 979.684 539.223 979.684 537.671 979.684 536.139 979.991 534.627 980.604 533.116 981.216 531.543 982.136 529.909 983.361 528.275 984.587 526.477 986.139 524.516 988.018 522.555 989.898 520.349 992.104 517.898 994.637L509.441 986.67C513.527 982.503 517.265 978.929 520.655 975.946 524.046 972.964 527.294 970.513 530.399 968.593 533.504 966.673 536.568 965.263 539.591 964.365 542.614 963.466 545.76 963.016 549.028 963.016ZM460.948 963.016C471.406 963.016 479.352 965.304 484.786 969.88 490.219 974.455 492.936 980.951 492.936 989.367 492.936 1018.94 464.952 1033.73 408.983 1033.73 408.575 1035.86 408.248 1038.17 408.003 1040.66 407.758 1043.15 407.635 1045.87 407.635 1048.81 407.635 1057.71 409.453 1064.21 413.089 1068.29 416.725 1072.38 422.383 1074.42 430.063 1074.42 434.067 1074.42 437.866 1073.99 441.461 1073.14 445.056 1072.28 448.59 1070.95 452.063 1069.15 455.535 1067.35 459.028 1065.05 462.541 1062.23 466.055 1059.41 469.732 1056.04 473.572 1052.12L482.764 1062.04C473.286 1071.44 463.828 1078.51 454.391 1083.25 444.954 1087.99 434.802 1090.35 423.935 1090.35 417.562 1090.35 411.904 1089.39 406.961 1087.47 402.018 1085.55 397.851 1082.76 394.46 1079.08 391.069 1075.4 388.496 1070.93 386.739 1065.66 384.982 1060.39 384.104 1054.45 384.104 1047.83 384.104 1043.17 384.512 1038.33 385.33 1033.3 386.147 1028.28 387.413 1023.25 389.129 1018.23 390.845 1013.2 392.969 1008.3 395.502 1003.52 398.035 998.742 401.017 994.269 404.449 990.102 411.312 981.605 419.585 974.966 429.267 970.186 438.949 965.406 449.509 963.016 460.948 963.016ZM690.117 934.46 709.236 934.46 702.25 965.59 743.92 965.59 741.101 979.194 699.554 979.194 687.053 1030.55C686.236 1033.98 685.562 1037.06 685.03 1039.8 684.499 1042.54 684.07 1045.01 683.744 1047.21 683.417 1049.42 683.192 1051.42 683.069 1053.22 682.947 1055.02 682.886 1056.69 682.886 1058.24 682.886 1063.15 683.907 1066.99 685.95 1069.77 687.992 1072.54 691.342 1073.93 695.999 1073.93 699.921 1073.93 704.088 1072.48 708.5 1069.58 712.912 1066.68 717.937 1062.13 723.575 1055.92L732.032 1064.49C727.865 1069.15 723.902 1073.11 720.143 1076.38 716.385 1079.65 712.708 1082.33 709.113 1084.41 705.518 1086.49 701.964 1088.01 698.451 1088.95 694.937 1089.89 691.342 1090.35 687.665 1090.35 677.942 1090.35 670.691 1088.07 665.911 1083.49 661.131 1078.92 658.742 1072.18 658.742 1063.27 658.742 1060.25 658.966 1056.92 659.416 1053.28 659.865 1049.65 660.498 1046.11 661.315 1042.68L675.9 979.194 654.82 979.194 657.271 969.757C662.173 969.757 665.993 969.287 668.73 968.348 671.467 967.408 673.775 966.121 675.655 964.487 676.88 963.343 678.065 961.934 679.209 960.259 680.353 958.584 681.497 956.562 682.641 954.192 683.784 951.823 684.949 949.024 686.133 945.797 687.318 942.57 688.646 938.791 690.117 934.46ZM800.136 914.851 824.648 914.851 818.642 941.201 794.376 941.201Z" fill-rule="evenodd"/><text fill="#000000" fill-opacity="0" font-family="Arial,Arial_MSFontService,sans-serif" font-size="175.504" x="384.104" y="1068.42">𝑒𝑟𝑡𝑖𝑐𝑒𝑠</text><path d="M1341.76 908.462 1548.7 908.462 1548.7 930.802 1341.76 930.802Z" fill-rule="evenodd"/><text fill="#000000" fill-opacity="0" font-family="Arial,Arial_MSFontService,sans-serif" font-size="22.3398" x="1341.76" y="928.01">−</text><path d="M1703.36 788.701 1857.89 788.701 1846.3 840.267 1830.18 840.267C1829.73 830.525 1828.89 823.19 1827.66 818.263 1826.43 813.336 1824.94 809.949 1823.21 808.101 1821.47 806.253 1819.4 805.022 1816.99 804.406 1814.58 803.79 1811.14 803.482 1806.66 803.482L1751.9 803.482 1732.76 891.497 1764.84 891.497C1772.79 891.497 1778.86 889.622 1783.06 885.871 1787.26 882.119 1791.49 875.932 1795.74 867.31L1811.03 867.31 1795.91 931.81 1781.63 931.81C1781.63 922.852 1781.07 916.777 1779.95 913.585 1778.83 910.394 1777.18 908.378 1775 907.539 1772.82 906.699 1768.87 906.279 1763.16 906.279L1729.56 906.279 1708.06 1003.2 1757.78 1003.2C1764.39 1003.2 1769.62 1002.52 1773.49 1001.18 1777.35 999.837 1780.99 997.654 1784.41 994.63 1787.82 991.607 1791.24 987.38 1794.65 981.949 1798.07 976.518 1802.13 969.155 1806.83 959.861L1823.12 959.861 1808.34 1017.98 1659.35 1017.98 1661.2 1009.75C1665.46 1009.08 1668.65 1007.98 1670.78 1006.47 1672.9 1004.96 1674.69 1002.86 1676.15 1000.17 1677.61 997.486 1678.95 994.21 1680.18 990.347 1681.41 986.484 1683.26 979.009 1685.72 967.923L1714.28 838.587C1716.74 827.389 1717.97 818.375 1717.97 811.544 1717.97 806.281 1716.66 802.614 1714.03 800.542 1711.4 798.471 1707.22 797.267 1701.51 796.931Z" fill-rule="evenodd"/><text fill="#000000" fill-opacity="0" font-family="Arial,Arial_MSFontService,sans-serif" font-size="229.277" x="1659.35" y="989.318">𝐸</text><path d="M2259.41 975.15C2254.92 975.15 2250.49 976.253 2246.12 978.459 2241.74 980.665 2237.62 983.79 2233.74 987.835 2229.86 991.879 2226.32 996.781 2223.14 1002.54 2219.95 1008.3 2217.29 1014.74 2215.17 1021.84 2225.55 1021.76 2234.47 1020.95 2241.95 1019.39 2249.43 1017.84 2255.55 1015.72 2260.33 1013.02 2265.11 1010.32 2268.63 1007.14 2270.87 1003.46 2273.12 999.784 2274.24 995.74 2274.24 991.328 2274.24 986.262 2272.98 982.299 2270.44 979.439 2267.91 976.58 2264.23 975.15 2259.41 975.15ZM2106.53 975.15C2101.79 975.15 2097.34 976.212 2093.17 978.336 2089 980.461 2085.2 983.32 2081.77 986.915 2078.34 990.51 2075.27 994.718 2072.58 999.539 2069.88 1004.36 2067.61 1009.47 2065.78 1014.86 2063.94 1020.25 2062.53 1025.81 2061.55 1031.53 2060.57 1037.25 2060.08 1042.76 2060.08 1048.07 2060.08 1065.48 2065.35 1074.18 2075.89 1074.18 2080.3 1074.18 2084.69 1072.85 2089.06 1070.19 2093.43 1067.54 2098.15 1063.11 2103.22 1056.9 2105.91 1053.63 2108.24 1050.56 2110.2 1047.7 2112.17 1044.84 2113.84 1041.96 2115.23 1039.06 2116.62 1036.16 2117.8 1033.08 2118.78 1029.81 2119.76 1026.54 2120.66 1022.87 2121.48 1018.78 2122.38 1014.12 2123.26 1009.59 2124.11 1005.18 2124.97 1000.76 2125.4 996.843 2125.4 993.411 2125.4 986.793 2123.85 982.095 2120.74 979.317 2117.64 976.539 2112.9 975.15 2106.53 975.15ZM1932.56 975.15C1927.73 975.15 1923.26 976.192 1919.14 978.275 1915.01 980.359 1911.23 983.218 1907.8 986.854 1904.37 990.49 1901.3 994.698 1898.61 999.478 1895.91 1004.26 1893.64 1009.36 1891.8 1014.8 1889.97 1020.23 1888.58 1025.79 1887.64 1031.47 1886.7 1037.14 1886.23 1042.68 1886.23 1048.07 1886.23 1056.9 1887.47 1063.45 1889.97 1067.74 1892.46 1072.03 1896.48 1074.18 1902.04 1074.18 1905.8 1074.18 1909.96 1072.91 1914.54 1070.38 1919.12 1067.84 1923.55 1064.19 1927.84 1059.41 1932.13 1054.63 1936.07 1048.81 1939.66 1041.94 1943.26 1035.08 1945.96 1027.36 1947.75 1018.78 1948.65 1014.37 1949.47 1009.96 1950.2 1005.54 1950.94 1001.13 1951.31 997.088 1951.31 993.411 1951.31 986.793 1949.82 982.095 1946.83 979.317 1943.85 976.539 1939.09 975.15 1932.56 975.15ZM2380.95 963.016C2388.88 963.016 2396.17 963.507 2402.83 964.487 2409.49 965.468 2415.96 966.898 2422.25 968.777L2416.37 996.475 2405.46 996.475C2404.56 989.121 2402.13 983.688 2398.17 980.175 2394.21 976.661 2388.06 974.905 2379.73 974.905 2376.38 974.905 2373.27 975.354 2370.41 976.253 2367.55 977.152 2365.1 978.398 2363.06 979.991 2361.02 981.584 2359.42 983.484 2358.28 985.69 2357.13 987.896 2356.56 990.306 2356.56 992.921 2356.56 995.29 2356.85 997.455 2357.42 999.416 2357.99 1001.38 2359.12 1003.3 2360.79 1005.18 2362.47 1007.06 2364.84 1009.02 2367.9 1011.06 2370.96 1013.1 2374.99 1015.43 2379.97 1018.05 2385.2 1020.9 2389.55 1023.64 2393.02 1026.26 2396.5 1028.87 2399.25 1031.53 2401.3 1034.22 2403.34 1036.92 2404.77 1039.8 2405.59 1042.86 2406.4 1045.93 2406.81 1049.34 2406.81 1053.1 2406.81 1058.9 2405.63 1064.11 2403.26 1068.72 2400.89 1073.34 2397.58 1077.24 2393.33 1080.43 2389.08 1083.61 2384.08 1086.07 2378.32 1087.78 2372.56 1089.5 2366.24 1090.35 2359.38 1090.35 2351.86 1090.35 2344.47 1089.86 2337.2 1088.88 2329.93 1087.9 2322.25 1086.23 2314.16 1083.86L2320.53 1055.92 2331.19 1055.92C2331.6 1063.51 2333.99 1069.21 2338.36 1073.01 2342.73 1076.81 2349.49 1078.71 2358.65 1078.71 2366.82 1078.71 2373.25 1076.96 2377.95 1073.44 2382.65 1069.93 2385 1065.03 2385 1058.73 2385 1055.88 2384.71 1053.4 2384.14 1051.32 2383.57 1049.24 2382.44 1047.26 2380.77 1045.38 2379.09 1043.5 2376.8 1041.56 2373.9 1039.55 2371 1037.55 2367.23 1035.24 2362.57 1032.63 2357.75 1029.93 2353.6 1027.28 2350.13 1024.66 2346.66 1022.05 2343.8 1019.39 2341.55 1016.7 2339.3 1014 2337.65 1011.18 2336.59 1008.24 2335.52 1005.3 2334.99 1002.15 2334.99 998.804 2334.99 993.656 2336.07 988.897 2338.24 984.526 2340.41 980.154 2343.49 976.375 2347.49 973.189 2351.5 970.002 2356.32 967.51 2361.96 965.713 2367.59 963.915 2373.92 963.016 2380.95 963.016ZM2264.68 963.016C2275.14 963.016 2283.09 965.304 2288.52 969.88 2293.95 974.455 2296.67 980.951 2296.67 989.367 2296.67 1018.94 2268.69 1033.73 2212.72 1033.73 2212.31 1035.86 2211.98 1038.17 2211.74 1040.66 2211.49 1043.15 2211.37 1045.87 2211.37 1048.81 2211.37 1057.71 2213.19 1064.21 2216.82 1068.29 2220.46 1072.38 2226.12 1074.42 2233.8 1074.42 2237.8 1074.42 2241.6 1073.99 2245.2 1073.14 2248.79 1072.28 2252.33 1070.95 2255.8 1069.15 2259.27 1067.35 2262.76 1065.05 2266.28 1062.23 2269.79 1059.41 2273.47 1056.04 2277.31 1052.12L2286.5 1062.04C2277.02 1071.44 2267.56 1078.51 2258.13 1083.25 2248.69 1087.99 2238.54 1090.35 2227.67 1090.35 2221.3 1090.35 2215.64 1089.39 2210.7 1087.47 2205.75 1085.55 2201.59 1082.76 2198.2 1079.08 2194.8 1075.4 2192.23 1070.93 2190.47 1065.66 2188.72 1060.39 2187.84 1054.45 2187.84 1047.83 2187.84 1043.17 2188.25 1038.33 2189.06 1033.3 2189.88 1028.28 2191.15 1023.25 2192.86 1018.23 2194.58 1013.2 2196.7 1008.3 2199.24 1003.52 2201.77 998.742 2204.75 994.269 2208.18 990.102 2215.05 981.605 2223.32 974.966 2233 970.186 2242.68 965.406 2253.24 963.016 2264.68 963.016ZM2104.32 963.016C2110.69 963.016 2116.33 963.772 2121.23 965.284 2126.14 966.795 2130.59 968.858 2134.59 971.473L2146.6 963.016 2155.92 965.59C2153.71 976.049 2151.51 986.364 2149.3 996.536 2147.09 1006.71 2144.85 1017.02 2142.56 1027.48 2139.95 1039.82 2137.66 1051.2 2135.7 1061.61 2133.74 1072.03 2131.57 1081.29 2129.2 1089.37 2126.83 1097.46 2123.99 1104.45 2120.68 1110.33 2117.37 1116.21 2113.12 1121.12 2107.94 1125.04 2102.75 1128.96 2096.35 1131.98 2088.76 1134.11 2081.16 1136.23 2071.84 1137.34 2060.81 1137.42 2043.82 1137.42 2031.01 1135.35 2022.39 1131.23 2013.77 1127.1 2009.46 1120.75 2009.46 1112.17 2009.46 1109.96 2009.81 1107.88 2010.5 1105.92 2011.2 1103.96 2012.28 1102.08 2013.75 1100.28 2015.22 1098.48 2017.12 1096.71 2019.45 1094.95 2021.78 1093.19 2024.54 1091.34 2027.72 1089.37L2038.88 1097.83C2036.02 1100.28 2034.07 1102.61 2033.05 1104.82 2032.03 1107.02 2031.52 1109.35 2031.52 1111.8 2031.52 1116.38 2033.85 1119.85 2038.51 1122.22 2043.16 1124.59 2050.44 1125.77 2060.32 1125.77 2065.39 1125.77 2069.96 1125.41 2074.05 1124.67 2078.13 1123.94 2081.87 1122.69 2085.26 1120.93 2088.65 1119.18 2091.74 1116.75 2094.52 1113.64 2097.29 1110.54 2099.87 1106.68 2102.24 1102.06 2104.61 1097.44 2106.85 1091.58 2108.98 1084.47 2111.1 1077.36 2113.19 1068.95 2115.23 1059.22L2113.39 1058.49C2109.06 1064.13 2104.93 1068.97 2101.01 1073.01 2097.09 1077.06 2093.23 1080.37 2089.43 1082.94 2085.63 1085.51 2081.81 1087.39 2077.97 1088.58 2074.13 1089.76 2070.13 1090.35 2065.96 1090.35 2056.4 1090.35 2048.99 1086.88 2043.72 1079.94 2038.45 1072.99 2035.81 1062.82 2035.81 1049.42 2035.81 1041.82 2036.63 1034.39 2038.26 1027.11 2039.9 1019.84 2042.22 1012.98 2045.25 1006.52 2048.27 1000.07 2051.89 994.167 2056.09 988.815 2060.3 983.463 2064.96 978.867 2070.07 975.027 2075.17 971.187 2080.61 968.225 2086.37 966.142 2092.13 964.058 2098.11 963.016 2104.32 963.016ZM1986.48 920.856 1992.73 920.856 1964.3 1045.87C1963.15 1050.69 1962.4 1054.53 1962.03 1057.39 1961.66 1060.25 1961.48 1062.82 1961.48 1065.11 1961.48 1068.21 1962.11 1070.46 1963.38 1071.85 1964.65 1073.24 1966.46 1073.93 1968.83 1073.93 1970.3 1073.93 1971.75 1073.65 1973.18 1073.07 1974.61 1072.5 1976.17 1071.6 1977.84 1070.38 1979.52 1069.15 1981.35 1067.58 1983.36 1065.66 1985.36 1063.74 1987.63 1061.43 1990.16 1058.73 1991.47 1060.12 1992.81 1061.49 1994.2 1062.84 1995.59 1064.19 1996.94 1065.52 1998.25 1066.82 1994.16 1070.99 1990.44 1074.57 1987.09 1077.55 1983.74 1080.53 1980.5 1082.98 1977.35 1084.9 1974.21 1086.82 1971.12 1088.21 1968.1 1089.07 1965.07 1089.93 1961.93 1090.35 1958.66 1090.35 1952.78 1090.35 1948.2 1088.46 1944.93 1084.66 1941.67 1080.86 1940.03 1075.65 1940.03 1069.03 1940.03 1065.35 1940.6 1061.84 1941.75 1058.49L1940.03 1057.75C1935.86 1063.56 1931.82 1068.5 1927.9 1072.58 1923.98 1076.67 1920.1 1080.04 1916.26 1082.69 1912.42 1085.35 1908.53 1087.29 1904.61 1088.52 1900.69 1089.74 1896.61 1090.35 1892.36 1090.35 1882.63 1090.35 1875.12 1086.86 1869.81 1079.88 1864.49 1072.89 1861.84 1062.74 1861.84 1049.42 1861.84 1041.49 1862.68 1033.88 1864.35 1026.56 1866.03 1019.25 1868.4 1012.39 1871.46 1005.97 1874.52 999.559 1878.18 993.717 1882.43 988.447 1886.68 983.177 1891.34 978.663 1896.4 974.905 1901.47 971.146 1906.86 968.225 1912.58 966.142 1918.3 964.058 1924.22 963.016 1930.35 963.016 1935.74 963.016 1940.69 963.548 1945.18 964.61 1949.67 965.672 1953.96 967.796 1958.05 970.983 1959.44 965.835 1960.54 961.444 1961.36 957.808 1962.17 954.172 1962.85 950.822 1963.38 947.758 1963.91 944.694 1964.18 942.141 1964.18 940.098 1964.18 938.382 1963.95 936.952 1963.5 935.808 1963.05 934.665 1962.26 933.725 1961.11 932.99 1959.97 932.254 1958.35 931.723 1956.27 931.396 1954.19 931.07 1951.55 930.824 1948.37 930.661L1949.96 922.327Z" fill-rule="evenodd"/><text fill="#000000" fill-opacity="0" font-family="Arial,Arial_MSFontService,sans-serif" font-size="216.561" x="1861.84" y="1110.35">𝑑𝑔𝑒𝑠</text><path d="M2642.34 811.712 2666.19 811.712 2666.19 908.462 2757.73 908.462 2757.73 930.802 2666.19 930.802 2666.19 1027.55 2642.34 1027.55 2642.34 930.802 2550.8 930.802 2550.8 908.462 2642.34 908.462Z" fill-rule="evenodd"/><text fill="#000000" fill-opacity="0" font-family="Arial,Arial_MSFontService,sans-serif" font-size="215.84" x="2550.8" y="1000.57">+</text><path d="M2912.4 788.701 3063.91 788.701 3052.32 840.267 3036.19 840.267C3035.74 831.645 3035.04 824.842 3034.09 819.859 3033.14 814.876 3031.8 811.292 3030.06 809.109 3028.32 806.925 3026.23 805.442 3023.76 804.658 3021.3 803.874 3017.6 803.482 3012.68 803.482L2960.94 803.482 2940.95 894.857 2972.36 894.857C2977.29 894.857 2981.38 894.185 2984.62 892.841 2987.87 891.497 2990.9 889.062 2993.7 885.535 2996.49 882.007 2999.97 875.988 3004.11 867.478L3019.39 867.478 3003.1 938.361 2988.32 938.361C2988.32 927.051 2987.96 919.968 2987.23 917.113 2986.5 914.257 2985.1 912.298 2983.03 911.234 2980.96 910.17 2976.84 909.638 2970.68 909.638L2937.76 909.638 2924.49 969.099C2922.14 979.625 2920.96 988.359 2920.96 995.302 2920.96 998.774 2921.52 1001.49 2922.64 1003.45 2923.76 1005.41 2925.44 1006.84 2927.68 1007.73 2929.92 1008.63 2933.79 1009.3 2939.27 1009.75L2937.43 1017.98 2868.39 1017.98 2870.24 1009.75C2874.49 1009.08 2877.68 1007.98 2879.81 1006.47 2881.94 1004.96 2883.73 1002.86 2885.19 1000.17 2886.64 997.486 2887.99 994.21 2889.22 990.347 2890.45 986.484 2892.3 979.009 2894.76 967.923L2923.32 838.587C2925.78 827.389 2927.01 818.543 2927.01 812.048 2927.01 806.561 2925.72 802.754 2923.15 800.626 2920.57 798.499 2916.37 797.267 2910.55 796.931Z" fill-rule="evenodd"/><text fill="#000000" fill-opacity="0" font-family="Arial,Arial_MSFontService,sans-serif" font-size="229.277" x="2868.39" y="989.318">𝐹</text><path d="M3373.19 975.15C3368.7 975.15 3364.27 976.253 3359.9 978.459 3355.52 980.665 3351.4 983.79 3347.52 987.835 3343.64 991.879 3340.1 996.781 3336.92 1002.54 3333.73 1008.3 3331.07 1014.74 3328.95 1021.84 3339.33 1021.76 3348.25 1020.95 3355.73 1019.39 3363.2 1017.84 3369.33 1015.72 3374.11 1013.02 3378.89 1010.32 3382.4 1007.14 3384.65 1003.46 3386.9 999.784 3388.02 995.74 3388.02 991.328 3388.02 986.262 3386.76 982.299 3384.22 979.439 3381.69 976.58 3378.01 975.15 3373.19 975.15ZM3088.33 975.15C3083.51 975.15 3079.02 976.212 3074.85 978.336 3070.69 980.461 3066.89 983.361 3063.46 987.038 3060.02 990.715 3056.98 994.963 3054.32 999.784 3051.67 1004.6 3049.42 1009.71 3047.58 1015.1 3045.75 1020.5 3044.36 1026.03 3043.42 1031.71 3042.48 1037.39 3042.01 1042.84 3042.01 1048.07 3042.01 1056.9 3043.25 1063.45 3045.75 1067.74 3048.24 1072.03 3052.26 1074.18 3057.82 1074.18 3060.6 1074.18 3063.27 1073.69 3065.85 1072.71 3068.42 1071.73 3071.14 1070.17 3074 1068.05 3081.19 1062.41 3087.31 1055.55 3092.38 1047.46 3097.44 1039.37 3101.24 1029.81 3103.78 1018.78 3104.92 1013.71 3105.82 1009.14 3106.47 1005.05 3107.13 1000.97 3107.45 997.088 3107.45 993.411 3107.45 986.875 3105.92 982.197 3102.86 979.378 3099.79 976.559 3094.95 975.15 3088.33 975.15ZM3494.73 963.016C3502.66 963.016 3509.95 963.507 3516.61 964.487 3523.27 965.468 3529.74 966.898 3536.03 968.777L3530.15 996.475 3519.24 996.475C3518.34 989.121 3515.91 983.688 3511.95 980.175 3507.99 976.661 3501.84 974.905 3493.51 974.905 3490.16 974.905 3487.05 975.354 3484.19 976.253 3481.33 977.152 3478.88 978.398 3476.84 979.991 3474.79 981.584 3473.2 983.484 3472.06 985.69 3470.91 987.896 3470.34 990.306 3470.34 992.921 3470.34 995.29 3470.63 997.455 3471.2 999.416 3471.77 1001.38 3472.89 1003.3 3474.57 1005.18 3476.24 1007.06 3478.61 1009.02 3481.68 1011.06 3484.74 1013.1 3488.77 1015.43 3493.75 1018.05 3498.98 1020.9 3503.33 1023.64 3506.8 1026.26 3510.28 1028.87 3513.03 1031.53 3515.08 1034.22 3517.12 1036.92 3518.55 1039.8 3519.36 1042.86 3520.18 1045.93 3520.59 1049.34 3520.59 1053.1 3520.59 1058.9 3519.41 1064.11 3517.04 1068.72 3514.67 1073.34 3511.36 1077.24 3507.11 1080.43 3502.86 1083.61 3497.86 1086.07 3492.1 1087.78 3486.34 1089.5 3480.02 1090.35 3473.16 1090.35 3465.64 1090.35 3458.25 1089.86 3450.98 1088.88 3443.71 1087.9 3436.03 1086.23 3427.94 1083.86L3434.31 1055.92 3444.97 1055.92C3445.38 1063.51 3447.77 1069.21 3452.14 1073.01 3456.51 1076.81 3463.27 1078.71 3472.43 1078.71 3480.6 1078.71 3487.03 1076.96 3491.73 1073.44 3496.43 1069.93 3498.78 1065.03 3498.78 1058.73 3498.78 1055.88 3498.49 1053.4 3497.92 1051.32 3497.35 1049.24 3496.22 1047.26 3494.55 1045.38 3492.87 1043.5 3490.58 1041.56 3487.68 1039.55 3484.78 1037.55 3481 1035.24 3476.35 1032.63 3471.53 1029.93 3467.38 1027.28 3463.91 1024.66 3460.43 1022.05 3457.57 1019.39 3455.33 1016.7 3453.08 1014 3451.43 1011.18 3450.36 1008.24 3449.3 1005.3 3448.77 1002.15 3448.77 998.804 3448.77 993.656 3449.85 988.897 3452.02 984.526 3454.18 980.154 3457.27 976.375 3461.27 973.189 3465.28 970.002 3470.1 967.51 3475.73 965.713 3481.37 963.915 3487.7 963.016 3494.73 963.016ZM3378.46 963.016C3388.92 963.016 3396.87 965.304 3402.3 969.88 3407.73 974.455 3410.45 980.951 3410.45 989.367 3410.45 1018.94 3382.47 1033.73 3326.5 1033.73 3326.09 1035.86 3325.76 1038.17 3325.52 1040.66 3325.27 1043.15 3325.15 1045.87 3325.15 1048.81 3325.15 1057.71 3326.97 1064.21 3330.6 1068.29 3334.24 1072.38 3339.9 1074.42 3347.58 1074.42 3351.58 1074.42 3355.38 1073.99 3358.98 1073.14 3362.57 1072.28 3366.1 1070.95 3369.58 1069.15 3373.05 1067.35 3376.54 1065.05 3380.06 1062.23 3383.57 1059.41 3387.25 1056.04 3391.09 1052.12L3400.28 1062.04C3390.8 1071.44 3381.34 1078.51 3371.91 1083.25 3362.47 1087.99 3352.32 1090.35 3341.45 1090.35 3335.08 1090.35 3329.42 1089.39 3324.48 1087.47 3319.53 1085.55 3315.37 1082.76 3311.97 1079.08 3308.58 1075.4 3306.01 1070.93 3304.25 1065.66 3302.5 1060.39 3301.62 1054.45 3301.62 1047.83 3301.62 1043.17 3302.03 1038.33 3302.84 1033.3 3303.66 1028.28 3304.93 1023.25 3306.64 1018.23 3308.36 1013.2 3310.48 1008.3 3313.02 1003.52 3315.55 998.742 3318.53 994.269 3321.96 990.102 3328.83 981.605 3337.1 974.966 3346.78 970.186 3356.46 965.406 3367.02 963.016 3378.46 963.016ZM3249.62 963.016C3255.59 963.016 3261.12 963.343 3266.23 963.997 3271.34 964.651 3276.63 965.672 3282.1 967.061L3275.24 997.088 3260.78 997.088C3260.7 992.839 3260.39 989.305 3259.86 986.486 3259.33 983.668 3258.47 981.441 3257.28 979.807 3256.1 978.173 3254.55 977.009 3252.63 976.314 3250.71 975.62 3248.36 975.232 3245.58 975.15 3241.17 975.15 3236.94 976.13 3232.9 978.091 3228.85 980.052 3225.09 982.769 3221.62 986.241 3218.15 989.714 3214.98 993.779 3212.12 998.436 3209.26 1003.09 3206.81 1008.12 3204.77 1013.51 3202.73 1018.9 3201.15 1024.52 3200.05 1030.36 3198.95 1036.2 3198.39 1042.03 3198.39 1047.83 3198.39 1056.49 3200.11 1063.09 3203.54 1067.62 3206.97 1072.15 3212.12 1074.42 3218.98 1074.42 3222.82 1074.42 3226.38 1074.07 3229.65 1073.38 3232.92 1072.69 3236.1 1071.52 3239.21 1069.89 3242.31 1068.25 3245.52 1066.11 3248.83 1063.45 3252.14 1060.8 3255.79 1057.51 3259.8 1053.59 3261.35 1055.22 3262.84 1056.84 3264.27 1058.43 3265.7 1060.02 3267.19 1061.64 3268.74 1063.27 3259.92 1072.42 3251.09 1079.22 3242.27 1083.68 3233.45 1088.13 3223.97 1090.35 3213.84 1090.35 3201.17 1090.35 3191.47 1086.66 3184.73 1079.26 3177.99 1071.87 3174.62 1061.31 3174.62 1047.58 3174.62 1039.9 3175.48 1032.49 3177.19 1025.34 3178.91 1018.19 3181.38 1011.47 3184.61 1005.18 3187.83 998.885 3191.69 993.166 3196.19 988.018 3200.68 982.871 3205.71 978.438 3211.26 974.721 3216.82 971.003 3222.82 968.123 3229.28 966.08 3235.73 964.038 3242.52 963.016 3249.62 963.016ZM3086.13 963.016C3092.58 963.016 3098.28 963.772 3103.23 965.284 3108.17 966.795 3112.68 968.858 3116.77 971.473L3128.66 963.016 3138.58 965.59 3120.08 1045.87C3119.02 1050.44 3118.28 1054.22 3117.87 1057.2 3117.46 1060.19 3117.26 1062.82 3117.26 1065.11 3117.26 1068.21 3117.89 1070.46 3119.16 1071.85 3120.42 1073.24 3122.24 1073.93 3124.61 1073.93 3126.08 1073.93 3127.53 1073.65 3128.96 1073.07 3130.39 1072.5 3131.95 1071.6 3133.62 1070.38 3135.3 1069.15 3137.13 1067.58 3139.14 1065.66 3141.14 1063.74 3143.4 1061.43 3145.94 1058.73 3147.24 1060.12 3148.59 1061.49 3149.98 1062.84 3151.37 1064.19 3152.72 1065.52 3154.03 1066.82 3149.94 1070.99 3146.22 1074.57 3142.87 1077.55 3139.52 1080.53 3136.28 1082.98 3133.13 1084.9 3129.98 1086.82 3126.9 1088.21 3123.88 1089.07 3120.85 1089.93 3117.71 1090.35 3114.44 1090.35 3108.56 1090.35 3103.98 1088.46 3100.71 1084.66 3097.44 1080.86 3095.81 1075.65 3095.81 1069.03 3095.81 1065.35 3096.38 1061.84 3097.53 1058.49L3095.81 1057.75C3091.64 1063.56 3087.6 1068.5 3083.68 1072.58 3079.76 1076.67 3075.87 1080.04 3072.03 1082.69 3068.19 1085.35 3064.31 1087.29 3060.39 1088.52 3056.47 1089.74 3052.38 1090.35 3048.14 1090.35 3038.41 1090.35 3030.9 1086.86 3025.58 1079.88 3020.27 1072.89 3017.62 1062.74 3017.62 1049.42 3017.62 1041.49 3018.46 1033.88 3020.13 1026.56 3021.81 1019.25 3024.18 1012.39 3027.24 1005.97 3030.3 999.559 3033.96 993.717 3038.21 988.447 3042.46 983.177 3047.11 978.663 3052.18 974.905 3057.25 971.146 3062.64 968.225 3068.36 966.142 3074.08 964.058 3080 963.016 3086.13 963.016Z" fill-rule="evenodd"/><text fill="#000000" fill-opacity="0" font-family="Arial,Arial_MSFontService,sans-serif" font-size="127.338" x="3017.62" y="1074.44">𝑎𝑐𝑒𝑠</text><path d="M3683.29 943.4 3890.23 943.4 3890.23 965.74 3683.29 965.74ZM3683.29 873.693 3890.23 873.693 3890.23 896.033 3683.29 896.033Z" fill-rule="evenodd"/><text fill="#000000" fill-opacity="0" font-family="Arial,Arial_MSFontService,sans-serif" font-size="92.0469" x="3683.29" y="954.234">=</text><path d="M4107.01 786.013C4127.83 786.013 4143.57 790.576 4154.21 799.703 4164.84 808.829 4170.16 822.07 4170.16 839.427 4170.16 845.362 4169.57 850.821 4168.4 855.804 4167.22 860.787 4165.38 865.714 4162.86 870.585 4160.34 875.456 4156.95 880.692 4152.69 886.29 4148.44 891.889 4143.74 897.572 4138.58 903.339 4133.43 909.106 4124.53 918.708 4111.88 932.146 4090.6 954.654 4074.98 974.306 4065.01 991.103L4128.34 991.103C4133.83 991.103 4138.25 990.767 4141.61 990.095 4144.97 989.423 4147.65 988.303 4149.67 986.736 4151.69 985.168 4153.28 983.124 4154.46 980.605 4155.63 978.085 4157.12 974.194 4158.91 968.931L4173.19 968.931 4170.33 1017.98 4032.09 1017.98 4032.09 1009.92C4036.91 998.158 4043.4 986.12 4051.58 973.802 4059.75 961.484 4071.34 946.983 4086.35 930.298 4099.34 915.965 4108.69 905.103 4114.4 897.712 4120.67 889.65 4125.34 882.679 4128.42 876.8 4131.5 870.921 4133.71 865.378 4135.06 860.171 4136.4 854.964 4137.07 849.729 4137.07 844.466 4137.07 836.068 4135.73 828.649 4133.04 822.21 4130.35 815.772 4126.24 810.705 4120.7 807.009 4115.15 803.314 4108.18 801.466 4099.78 801.466 4078.84 801.466 4064.73 813.112 4057.46 836.404L4037.13 836.404 4037.13 804.154C4050.68 797.771 4063.36 793.152 4075.18 790.296 4086.99 787.441 4097.6 786.013 4107.01 786.013Z" fill-rule="evenodd"/><text fill="#000000" fill-opacity="0" font-family="Arial,Arial_MSFontService,sans-serif" font-size="231.965" x="4032.09" y="988.982">2</text></g></svg>